<?xml version="1.0" standalone="no"?>
<!DOCTYPE svg PUBLIC "-//W3C//DTD SVG 20010904//EN"
 "http://www.w3.org/TR/2001/REC-SVG-20010904/DTD/svg10.dtd">
<svg version="1.0" xmlns="http://www.w3.org/2000/svg"
 width="500.000000pt" height="500.000000pt" viewBox="0 0 500.000000 500.000000"
 preserveAspectRatio="xMidYMid meet">

<g transform="translate(0.000000,500.000000) scale(0.100000,-0.100000)"
fill="#000000" stroke="none">
<path d="M0 2500 l0 -2500 2500 0 2500 0 0 2500 0 2500 -2500 0 -2500 0 0
-2500z m3434 778 c26 -32 16 -99 -28 -186 -85 -169 -240 -267 -223 -140 6 45
43 108 63 108 19 0 18 -8 -6 -55 -41 -81 -17 -87 52 -14 52 55 105 153 114
210 15 91 -76 80 -193 -25 -101 -91 -213 -284 -221 -382 -5 -63 0 -67 107 -83
41 -7 89 -18 106 -27 37 -17 65 -61 65 -103 0 -64 -67 -193 -146 -280 -20 -23
-32 -41 -28 -41 20 1 159 41 165 48 3 4 20 106 37 226 17 121 36 224 41 229
22 22 33 -6 27 -62 l-7 -56 43 70 c44 71 67 87 95 64 32 -27 -14 -181 -59
-198 -44 -16 -69 17 -28 39 22 12 43 49 54 94 12 50 -19 13 -63 -74 -34 -68
-64 -169 -85 -289 -6 -32 -5 -33 22 -28 15 4 97 22 182 42 164 37 280 52 325
41 20 -5 26 -12 23 -29 -4 -28 -27 -39 -218 -104 -150 -51 -153 -53 -90 -47
71 7 69 7 88 5 13 -1 17 -27 4 -35 -4 -2 -76 -14 -160 -26 -216 -31 -205 -26
-217 -91 -7 -36 -15 -54 -25 -54 -12 0 -15 12 -13 52 l2 52 -32 -5 c-85 -16
-391 -88 -462 -110 -44 -13 -108 -30 -143 -38 -57 -13 -64 -13 -69 1 -9 23 16
37 115 68 48 14 114 34 147 45 33 10 147 40 254 66 161 40 194 51 201 69 4 11
4 21 0 23 -10 4 -321 -80 -540 -144 -289 -86 -562 -199 -686 -285 -38 -26 -43
-27 -55 -12 -12 13 -9 19 19 43 42 35 247 137 372 186 123 47 369 125 543 171
104 27 137 40 137 52 0 9 25 50 55 90 62 84 125 202 125 236 0 40 -39 64 -128
77 -137 19 -173 56 -153 158 33 166 197 386 342 459 74 37 122 37 153 -1z
m-2207 -80 c-61 -95 -71 -113 -73 -128 -3 -38 -40 -144 -82 -235 -24 -55 -45
-111 -47 -125 -1 -14 -12 -59 -24 -100 -13 -41 -35 -113 -49 -160 -24 -82 -28
-88 -104 -160 -79 -77 -89 -90 -64 -90 8 0 16 -7 20 -15 4 -13 2 -14 -14 -5
-18 10 -22 7 -34 -22 -16 -37 -13 -48 15 -48 20 0 26 -15 9 -25 -37 -23 18
-108 80 -125 21 -6 43 -17 50 -25 19 -23 14 -78 -11 -134 l-24 -51 -150 0
-150 0 -23 55 c-39 98 -29 130 50 159 25 9 53 27 61 39 19 30 27 66 16 73 -16
10 -10 32 11 37 26 7 26 32 -1 50 -14 10 -16 16 -8 19 10 3 13 35 14 119 1
108 16 261 34 324 l7 30 12 -33 c6 -17 13 -32 16 -32 3 0 1 12 -4 26 -13 33
-13 81 0 89 6 3 10 17 10 31 0 45 133 269 160 269 6 0 18 14 27 32 39 69 232
211 291 213 7 0 -2 -22 -21 -52z m773 -107 c37 -70 -53 -322 -172 -483 -49
-67 -68 -111 -68 -158 1 -24 1 -24 12 -5 17 31 81 95 95 95 21 0 33 -36 33
-99 0 -50 3 -61 17 -61 21 0 160 144 184 192 40 77 91 68 94 -18 2 -61 20
-108 37 -98 7 4 32 24 56 43 34 29 42 42 42 69 0 39 17 75 31 67 5 -4 9 -24 9
-45 l0 -39 44 46 c31 33 48 44 60 40 15 -6 11 -14 -27 -57 -39 -43 -63 -89
-83 -158 -6 -20 -29 -9 -32 16 -4 28 -7 28 -51 -7 -52 -41 -76 -46 -94 -20
l-15 21 -30 -22 c-39 -29 -65 -23 -76 17 l-10 31 -44 -49 c-51 -57 -94 -83
-122 -74 -25 8 -41 67 -33 120 6 40 6 40 -15 21 -11 -10 -39 -54 -62 -97 -58
-112 -71 -107 -66 30 2 59 7 114 11 120 4 7 20 61 35 121 53 199 130 381 186
437 28 28 40 29 54 4z m-208 -38 c45 -40 2 -184 -90 -299 -94 -119 -188 -121
-147 -4 17 49 41 80 62 80 15 0 18 -16 4 -24 -5 -4 -16 -26 -24 -51 -22 -63
-2 -60 61 10 91 99 141 238 95 263 -47 27 -188 -76 -279 -203 -55 -78 -112
-200 -120 -258 -8 -56 8 -72 82 -82 75 -9 141 -30 165 -51 31 -28 41 -84 25
-138 -26 -87 -168 -286 -205 -286 -29 0 -18 32 34 101 69 92 125 201 125 245
0 45 -27 61 -133 78 -93 16 -121 27 -137 56 -41 77 43 283 178 430 127 139
242 190 304 133z m2148 -174 c7 -11 9 -33 5 -47 -5 -25 -4 -25 15 6 27 44 65
61 87 39 14 -14 15 -22 4 -57 -6 -22 -25 -55 -41 -74 -35 -40 -37 -46 -10 -46
11 0 41 20 66 45 46 46 64 55 64 31 0 -18 -55 -87 -88 -108 -36 -24 -79 -23
-94 1 -11 18 -14 18 -52 -15 -47 -40 -70 -43 -92 -9 l-16 24 -45 -34 c-52 -39
-77 -44 -95 -16 -11 19 -13 18 -46 -7 -50 -38 -67 -23 -66 57 1 49 7 70 30
108 49 78 94 65 94 -27 0 -25 4 -50 9 -55 5 -6 11 -18 13 -28 3 -16 10 -13 53
22 40 32 55 53 70 97 30 89 109 143 135 93z m-1334 -223 c7 -28 -14 -80 -49
-122 -31 -37 -33 -44 -11 -44 8 0 40 23 69 51 45 43 56 49 61 35 13 -33 -92
-136 -137 -136 -73 0 -80 149 -10 219 29 29 69 28 77 -3z"/>
<path d="M3600 2335 c-247 -54 -295 -69 -298 -94 -3 -18 0 -22 15 -18 10 3 70
20 133 37 132 37 261 79 275 92 13 12 -7 9 -125 -17z"/>
<path d="M816 2525 c-3 -9 -6 -22 -5 -28 0 -7 5 -1 10 12 5 13 8 26 5 28 -2 2
-6 -3 -10 -12z"/>
<path d="M791 2424 c0 -11 3 -14 6 -6 3 7 2 16 -1 19 -3 4 -6 -2 -5 -13z"/>
<path d="M751 2264 c0 -11 3 -14 6 -6 3 7 2 16 -1 19 -3 4 -6 -2 -5 -13z"/>
<path d="M741 2224 c0 -11 3 -14 6 -6 3 7 2 16 -1 19 -3 4 -6 -2 -5 -13z"/>
<path d="M1958 3047 c-49 -74 -110 -223 -148 -361 -23 -82 -18 -78 49 32 55
92 107 225 117 301 7 56 4 62 -18 28z"/>
<path d="M2136 2539 c-7 -19 -16 -47 -20 -63 l-7 -28 28 22 c23 17 27 28 24
58 -4 49 -8 51 -25 11z"/>
<path d="M3870 2818 c-20 -34 -35 -103 -28 -134 4 -16 11 -12 45 24 43 45 62
85 37 75 -10 -4 -14 4 -14 31 0 45 -14 46 -40 4z"/>
<path d="M3996 2806 c-10 -21 -15 -40 -12 -43 7 -8 38 57 33 70 -3 7 -12 -5
-21 -27z"/>
<path d="M3597 2732 c-24 -66 -23 -76 8 -56 19 13 25 25 25 55 0 55 -14 55
-33 1z"/>
<path d="M2547 2608 c-24 -50 -21 -70 4 -31 11 18 19 40 17 50 -2 13 -8 8 -21
-19z"/>
</g>
</svg>
